<?xml version="1.0" standalone="no"?>
<!DOCTYPE svg PUBLIC "-//W3C//DTD SVG 20010904//EN"
 "http://www.w3.org/TR/2001/REC-SVG-20010904/DTD/svg10.dtd">
<svg version="1.0" xmlns="http://www.w3.org/2000/svg"
 width="500.000000pt" height="500.000000pt" viewBox="0 0 500.000000 500.000000"
 preserveAspectRatio="xMidYMid meet">
<metadata>
Created by potrace 1.14, written by Peter Selinger 2001-2017
</metadata>
<g transform="translate(0.000000,500.000000) scale(0.100000,-0.100000)"
fill="#000000" stroke="none">
<path d="M0 2500 l0 -2500 2500 0 2500 0 0 2500 0 2500 -2500 0 -2500 0 0
-2500z m1892 1740 c261 -30 571 -201 770 -425 242 -273 346 -548 257 -680 -25
-36 -107 -85 -143 -85 -72 0 -97 19 -301 224 -110 111 -234 228 -275 258 -210
158 -385 216 -569 189 -172 -25 -407 -185 -469 -320 -22 -48 -24 -63 -20 -142
12 -203 83 -263 519 -435 107 -42 241 -101 299 -131 139 -73 335 -205 437
-292 142 -122 276 -308 343 -473 56 -141 65 -190 64 -353 -1 -133 -4 -160 -28
-240 -92 -306 -292 -479 -638 -554 -217 -47 -476 -47 -653 -1 -109 29 -262
106 -366 184 -230 174 -482 497 -578 741 -104 263 -91 447 35 521 145 85 293
3 333 -184 22 -106 158 -330 266 -437 112 -112 255 -209 372 -252 131 -49 394
-40 550 18 150 56 193 202 109 376 -69 142 -172 250 -346 362 -120 78 -402
221 -590 301 -303 128 -431 221 -535 391 -50 81 -102 247 -116 364 -43 382
119 666 522 916 231 143 462 192 751 159z m2172 -1000 c177 -26 311 -161 470
-472 143 -281 187 -400 187 -508 1 -120 -42 -189 -130 -209 -111 -25 -228 25
-353 149 l-88 87 0 -246 c0 -135 -4 -322 -10 -416 -5 -93 -12 -300 -15 -460
-4 -159 -11 -312 -16 -339 -24 -129 -130 -220 -235 -200 -55 10 -123 63 -156
121 -44 79 -57 163 -68 443 -5 140 -18 392 -29 560 -11 168 -23 358 -27 423
-3 64 -10 117 -15 117 -6 0 -52 -40 -103 -90 -51 -49 -112 -98 -137 -109 -86
-40 -189 -20 -256 49 -49 51 -67 106 -61 194 9 139 105 296 320 521 202 211
376 332 542 375 84 22 90 23 180 10z"/>
</g>
</svg>
